<svg xmlns="http://www.w3.org/2000/svg" width="447" height="360" viewBox="0 0 447 360">
  <g id="Grupo_50" data-name="Grupo 50" transform="translate(-823 -1085)">
    <text id="Valores" transform="translate(985 1283)" fill="#72a5b8" font-size="32" font-family="Poppins-Bold, Poppins" font-weight="700"><tspan x="0" y="0">Valores</tspan></text>
    <ellipse id="Elipse_2" data-name="Elipse 2" cx="72" cy="38" rx="72" ry="38" transform="translate(971 1085)" fill="#72a5b8"/>
    <ellipse id="Elipse_3" data-name="Elipse 3" cx="72" cy="38" rx="72" ry="38" transform="translate(1106 1158)" fill="#72a5b8"/>
    <ellipse id="Elipse_4" data-name="Elipse 4" cx="72" cy="38" rx="72" ry="38" transform="translate(1126 1268)" fill="#72a5b8"/>
    <ellipse id="Elipse_5" data-name="Elipse 5" cx="72" cy="38" rx="72" ry="38" transform="translate(1074 1369)" fill="#72a5b8"/>
    <ellipse id="Elipse_6" data-name="Elipse 6" cx="72" cy="38" rx="72" ry="38" transform="translate(881 1369)" fill="#72a5b8"/>
    <ellipse id="Elipse_7" data-name="Elipse 7" cx="72" cy="38" rx="72" ry="38" transform="translate(823 1262)" fill="#72a5b8"/>
    <ellipse id="Elipse_8" data-name="Elipse 8" cx="72" cy="38" rx="72" ry="38" transform="translate(844 1159)" fill="#72a5b8"/>
    <text id="Vida_em_1_lugar_" data-name="Vida em 
1º lugar
" transform="translate(1043 1117)" fill="#fff" font-size="20" font-family="SegoeUI-Bold, Segoe UI" font-weight="700"><tspan x="-41.172" y="0">Vida em </tspan><tspan x="-37.515" y="27">1º lugar</tspan><tspan x="0" y="54"></tspan></text>
    <text id="Ética_" data-name="Ética
" transform="translate(1156 1202)" fill="#fff" font-size="20" font-family="SegoeUI-Bold, Segoe UI" font-weight="700"><tspan x="0" y="0">Ética</tspan><tspan x="0" y="27"></tspan></text>
    <text id="Crescimento_" data-name="Crescimento
" transform="translate(1093 1413)" fill="#fff" font-size="20" font-family="SegoeUI-Bold, Segoe UI" font-weight="700"><tspan x="0" y="0">Crescimento</tspan><tspan x="0" y="27"></tspan></text>
    <text id="Respeito_" data-name="Respeito
" transform="translate(1156 1312)" fill="#fff" font-size="20" font-family="SegoeUI-Bold, Segoe UI" font-weight="700"><tspan x="0" y="0">Respeito</tspan><tspan x="0" y="27"></tspan></text>
    <text id="Cuidado_" data-name="Cuidado
" transform="translate(849 1306)" fill="#fff" font-size="20" font-family="SegoeUI-Bold, Segoe UI" font-weight="700"><tspan x="0" y="0">Cuidado</tspan><tspan x="0" y="27"></tspan></text>
    <text id="Equidade" transform="translate(872 1200)" fill="#fff" font-size="20" font-family="SegoeUI-Bold, Segoe UI" font-weight="700"><tspan x="0" y="0">Equidade</tspan></text>
    <text id="Transparência" transform="translate(888 1413)" fill="#fff" font-size="20" font-family="SegoeUI-Bold, Segoe UI" font-weight="700"><tspan x="0" y="0">Transparência</tspan></text>
  </g>
</svg>
